<?xml version="1.0" encoding="UTF-8"?>
<svg version="1.1" xmlns="http://www.w3.org/2000/svg" width="364" height="113">
<path d="M0 0 C120.12 0 240.24 0 364 0 C364 37.29 364 74.58 364 113 C243.88 113 123.76 113 0 113 C0 75.71 0 38.42 0 0 Z " fill="#FDFDFD" transform="translate(0,0)"/>
<path d="M0 0 C3.69140625 1.01953125 3.69140625 1.01953125 5.9140625 4.1953125 C6.55403358 5.56203608 7.16604071 6.94209944 7.75390625 8.33203125 C8.42673653 9.79963821 9.09991664 11.26708484 9.7734375 12.734375 C10.09650879 13.46253418 10.41958008 14.19069336 10.75244141 14.94091797 C12.04897506 17.81109153 13.49393585 20.59803302 14.94140625 23.39453125 C17.11942545 27.73295763 18.95006278 32.11703822 20.69140625 36.64453125 C22.06043529 39.89597521 23.78679406 42.89206955 25.5390625 45.94921875 C27.17164299 48.88232945 28.42689214 51.91093405 29.69140625 55.01953125 C34.95847875 68.15832966 34.95847875 68.15832966 41.44140625 80.70703125 C43.4695993 84.29392822 44.49009781 86.82640055 43.69140625 91.01953125 C41.43487854 93.88877854 39.1443093 94.76023761 35.70776367 95.82885742 C34.69207809 96.14896286 33.67639252 96.4690683 32.62992859 96.7988739 C31.5300209 97.13337051 30.43011322 97.46786713 29.296875 97.8125 C27.58846184 98.33883781 27.58846184 98.33883781 25.84553528 98.87580872 C23.42860603 99.61622411 21.01006991 100.35141121 18.59008789 101.08178711 C14.92497981 102.19306157 11.27031924 103.33477278 7.61523438 104.47851562 C5.25969243 105.19591051 2.90358824 105.91146234 0.546875 106.625 C-1.06958672 107.13585396 -1.06958672 107.13585396 -2.71870422 107.6570282 C-10.50141125 109.95880218 -18.19602953 111.06967929 -26.30859375 110.01953125 C-28.99019728 108.28931713 -30.10477114 106.48210643 -31.49609375 103.64453125 C-31.87427246 102.98203369 -32.25245117 102.31953613 -32.64208984 101.63696289 C-33.45759756 100.207919 -34.25361802 98.76761181 -35.03173828 97.31787109 C-36.38375678 94.88423779 -37.85096897 92.5611327 -39.3671875 90.2265625 C-40.38968087 88.63694894 -41.4118231 87.04710945 -42.43359375 85.45703125 C-42.91981201 84.70824707 -43.40603027 83.95946289 -43.90698242 83.18798828 C-46.48477508 79.03043906 -48.28372316 76.04111602 -47.30859375 71.01953125 C-46.1010911 68.28335747 -44.58624833 65.79851922 -42.99609375 63.26953125 C-42.54314941 62.52566162 -42.09020508 61.78179199 -41.62353516 61.01538086 C-40.66834043 59.44993195 -39.70729182 57.88804142 -38.74072266 56.32958984 C-37.40022885 54.16734089 -36.07574685 51.99636514 -34.7578125 49.8203125 C-32.50519461 46.10633893 -30.23439823 42.40384394 -27.95849609 38.70410156 C-26.4109456 36.18606883 -24.86670777 33.66602757 -23.32348633 31.14533997 C-21.90187229 28.82400057 -20.47859116 26.50368605 -19.05499268 24.18356323 C-18.02445027 22.50326649 -16.99535877 20.82208017 -15.96630859 19.14086914 C-4.22179396 0.02492204 -4.22179396 0.02492204 0 0 Z " fill="#1F2531" transform="translate(48.30859375,2.98046875)"/>
<path d="M0 0 C1.32 0 2.64 0 4 0 C4.33 1.65 4.66 3.3 5 5 C5.66 5 6.32 5 7 5 C7.23074219 5.66644531 7.46148437 6.33289063 7.69921875 7.01953125 C9.77067468 12.87364585 12.0855683 18.51951077 14.6953125 24.15234375 C16.11441835 27.24973346 17.47724563 30.36554694 18.8125 33.5 C19.23144531 34.4796875 19.65039062 35.459375 20.08203125 36.46875 C21 39 21 39 21 42 C21.66 42 22.32 42 23 42 C23.32613281 42.78503906 23.65226562 43.57007813 23.98828125 44.37890625 C24.42527344 45.42949219 24.86226562 46.48007813 25.3125 47.5625 C25.993125 49.20412109 25.993125 49.20412109 26.6875 50.87890625 C27.6940729 53.27251264 28.73714717 55.63732576 29.8125 58 C31 61 31 61 31 65 C20.37625565 68.45099665 9.74456977 71.87915039 -1 74.9375 C-1.72171387 75.14850342 -2.44342773 75.35950684 -3.18701172 75.5769043 C-7.22505856 76.70325653 -10.81088588 77.2160012 -15 77 C-14.20026243 69.28474034 -12.62739846 61.73778471 -11.09375 54.140625 C-10.80588649 52.70437047 -10.518252 51.26807002 -10.23083496 49.83172607 C-9.6307468 46.83586598 -9.02878304 43.84039147 -8.42529297 40.84521484 C-7.65263362 37.01029691 -6.88334764 33.17471249 -6.11528778 29.338871 C-5.52248554 26.3790185 -4.92859495 23.41938532 -4.33430481 20.45983124 C-4.05026171 19.04530108 -3.76639569 17.63073535 -3.48271179 16.21613312 C-3.08648149 14.2418692 -2.68878102 12.26790052 -2.29101562 10.29394531 C-2.06530884 9.17223938 -1.83960205 8.05053345 -1.60705566 6.89483643 C-1.12139564 4.57889341 -0.59742042 2.28906807 0 0 Z " fill="#F8F8F8" transform="translate(48,24)"/>
<path d="M0 0 C2.97 0 5.94 0 9 0 C9.66 1.32 10.32 2.64 11 4 C11.763125 3.34 12.52625 2.68 13.3125 2 C17.82513967 -1.0119994 22.78293727 -0.67242142 28 0 C31.6875 1.5 31.6875 1.5 34 3 C34 3.66 34 4.32 34 5 C34.43828125 4.6390625 34.8765625 4.278125 35.328125 3.90625 C41.30395431 -0.46630803 46.72460355 -1.11378962 54 0 C57.15297178 1.19449123 59.20830056 2.83983881 61.13623047 5.66503906 C62.35629989 8.96315775 62.24634404 12.14291419 62.1953125 15.609375 C62.1924826 16.33618469 62.18965271 17.06299438 62.18673706 17.81182861 C62.17557523 20.12472251 62.15047851 22.43722388 62.125 24.75 C62.11496501 26.32160898 62.10584006 27.89322404 62.09765625 29.46484375 C62.07564904 33.31004622 62.04114715 37.15495664 62 41 C58.37 41 54.74 41 51 41 C50.98541748 40.17274414 50.97083496 39.34548828 50.95581055 38.49316406 C50.8813414 34.74497119 50.7846754 30.99767003 50.6875 27.25 C50.65366211 25.29707031 50.65366211 25.29707031 50.61914062 23.3046875 C50.58369141 22.05429688 50.54824219 20.80390625 50.51171875 19.515625 C50.48553467 18.36352539 50.45935059 17.21142578 50.43237305 16.02441406 C49.96874062 12.78134322 49.19232251 11.37863165 47 9 C43.56769552 9.26393501 43.56769552 9.26393501 40 10 C37.64290358 13.53564463 37.69990265 15.22025255 37.5859375 19.41796875 C37.54726563 20.67158203 37.50859375 21.92519531 37.46875 23.21679688 C37.42234375 25.18229492 37.42234375 25.18229492 37.375 27.1875 C37.33680662 28.5228116 37.29775409 29.85809892 37.2578125 31.19335938 C37.16340847 34.46209888 37.07782983 37.73083064 37 41 C33.04 41 29.08 41 25 41 C24.97494385 40.09644775 24.9498877 39.19289551 24.92407227 38.26196289 C24.82912683 34.9203572 24.72988379 31.57893748 24.62768555 28.23754883 C24.5842837 26.7893576 24.54261256 25.34111346 24.50268555 23.89282227 C24.44510938 21.81510441 24.38137972 19.73765427 24.31640625 17.66015625 C24.27974854 16.40855713 24.24309082 15.15695801 24.20532227 13.86743164 C24.32196094 11.10369496 24.32196094 11.10369496 23 10 C18.93167569 9.48693813 18.93167569 9.48693813 15 10 C12.2192926 13.74609471 11.60198192 16.55953393 11.48828125 21.17578125 C11.45283203 22.33271484 11.41738281 23.48964844 11.38085938 24.68164062 C11.34702148 26.47891602 11.34702148 26.47891602 11.3125 28.3125 C11.27833984 29.53001953 11.24417969 30.74753906 11.20898438 32.00195312 C11.12665183 35.00121014 11.05745079 38.00018014 11 41 C7.37 41 3.74 41 0 41 C0 27.47 0 13.94 0 0 Z " fill="#222833" transform="translate(254,46)"/>
<path d="M0 0 C28.79487179 0 28.79487179 0 35.5625 6.4375 C38.01250761 12.509258 38.07666354 19.77000939 36 26 C34.546875 27.53515625 34.546875 27.53515625 32.75 29.0625 C32.16734375 29.56910156 31.5846875 30.07570313 30.984375 30.59765625 C26.62748991 33.67663607 22.96571553 34.24100474 17.6875 34.125 C15.810625 34.08375 13.93375 34.0425 12 34 C12 40.27 12 46.54 12 53 C8.04 53 4.08 53 0 53 C0 35.51 0 18.02 0 0 Z " fill="#242A35" transform="translate(120,34)"/>
<path d="M0 0 C2.89627412 2.43674002 4.16550043 4.14493878 5.37109375 7.76171875 C5.45563245 10.20279635 5.48715161 12.61431088 5.46875 15.0546875 C5.46733505 15.76071609 5.4659201 16.46674469 5.46446228 17.19416809 C5.45887139 19.44589501 5.44632063 21.69752196 5.43359375 23.94921875 C5.42857757 25.4772121 5.42401487 27.00520702 5.41992188 28.53320312 C5.40890495 32.2760801 5.39164662 36.01888248 5.37109375 39.76171875 C2.73109375 39.76171875 0.09109375 39.76171875 -2.62890625 39.76171875 C-3.12390625 37.28671875 -3.12390625 37.28671875 -3.62890625 34.76171875 C-4.26957031 35.19484375 -4.91023438 35.62796875 -5.5703125 36.07421875 C-14.49902518 41.8226597 -14.49902518 41.8226597 -20.62890625 40.76171875 C-25.25395087 39.03866291 -28.22061962 37.11515996 -30.62890625 32.76171875 C-31.36759403 28.63335152 -31.53409582 24.72029264 -29.74609375 20.8515625 C-27.4115717 17.70536888 -24.69613395 15.84712581 -20.875 14.99609375 C-15.80901812 14.46746955 -10.71329994 14.62409606 -5.62890625 14.76171875 C-6.28890625 12.45171875 -6.94890625 10.14171875 -7.62890625 7.76171875 C-13.08660436 7.65033716 -18.24399984 7.84513894 -23.62890625 8.76171875 C-25.19140625 6.44921875 -25.19140625 6.44921875 -26.62890625 3.76171875 C-26.29890625 2.77171875 -25.96890625 1.78171875 -25.62890625 0.76171875 C-18.5411475 -2.47091082 -7.17289845 -3.37861636 0 0 Z " fill="#202631" transform="translate(353.62890625,47.23828125)"/>
<path d="M0 0 C1.12051758 -0.01160156 1.12051758 -0.01160156 2.26367188 -0.0234375 C6.79009648 -0.00754136 10.42648051 0.54288249 14.6875 2.25 C14.05990135 5.17879371 13.10127341 7.61095629 11.6875 10.25 C10.6975 10.085 9.7075 9.92 8.6875 9.75 C4.66017058 9.16525483 0.75275377 9.17867976 -3.3125 9.25 C-3.33650319 11.16015383 -3.33650319 11.16015383 -2.3125 13.25 C-0.0359605 14.56644652 2.10242951 15.64895439 4.5 16.6875 C9.31146824 18.78051331 12.80598246 20.69235221 15.6875 25.25 C16.17035388 29.11283104 16.05062836 31.4511176 14.4375 35 C11.16840293 39.2031248 7.86622059 41.02593877 2.6875 42.25 C-3.69118634 42.72213842 -9.28044007 42.39473242 -15.3125 40.25 C-15.3125 37.28 -15.3125 34.31 -15.3125 31.25 C-14.47460938 31.41371094 -13.63671875 31.57742187 -12.7734375 31.74609375 C-9.10732693 32.27987283 -5.64010615 32.34743025 -1.9375 32.3125 C-0.69226563 32.30347656 0.55296875 32.29445312 1.8359375 32.28515625 C2.77695313 32.27355469 3.71796875 32.26195312 4.6875 32.25 C4.45172398 30.30311619 4.45172398 30.30311619 3.6875 28.25 C2.1534099 27.05870871 2.1534099 27.05870871 0.1953125 26.28515625 C-0.50980469 25.95966797 -1.21492187 25.63417969 -1.94140625 25.29882812 C-3.43081457 24.6447836 -4.92039612 23.99113342 -6.41015625 23.33789062 C-10.7650059 21.32704475 -13.40971419 19.90854456 -15.3125 15.25 C-16.20252737 11.01635629 -15.80879429 8.03722543 -13.5 4.375 C-9.11613103 0.11638443 -5.83726094 -0.05951328 0 0 Z " fill="#232834" transform="translate(231.3125,45.75)"/>
<path d="M0 0 C2.97 0 5.94 0 9 0 C9.33 1.98 9.66 3.96 10 6 C10.4846875 5.566875 10.969375 5.13375 11.46875 4.6875 C15.08561887 1.68271664 17.66224683 -0.42683307 22.5 -0.375 C23.655 -0.25125 24.81 -0.1275 26 0 C26 3.3 26 6.6 26 10 C23.8653125 10.185625 23.8653125 10.185625 21.6875 10.375 C18.19426202 10.67875982 17.03525486 10.97649676 14 13 C12.96285478 16.11143567 12.79968139 18.49468096 12.68359375 21.76171875 C12.64169922 22.87998047 12.59980469 23.99824219 12.55664062 25.15039062 C12.51732422 26.31763672 12.47800781 27.48488281 12.4375 28.6875 C12.39431641 29.86634766 12.35113281 31.04519531 12.30664062 32.25976562 C12.20048906 35.17303626 12.09973371 38.0865026 12 41 C8.04 41 4.08 41 0 41 C0 27.47 0 13.94 0 0 Z " fill="#292F3A" transform="translate(164,46)"/>
<path d="M0 0 C3.96 0 7.92 0 12 0 C12 13.53 12 27.06 12 41 C8.04 41 4.08 41 0 41 C0 27.47 0 13.94 0 0 Z " fill="#2D323D" transform="translate(196,46)"/>
<path d="M0 0 C8.05718867 -0.48102619 8.05718867 -0.48102619 12.0625 1.5625 C14 4 14 4 14.5625 7.5 C13.92323536 11.47764662 13.18788506 12.63185681 10 15 C7 16 7 16 0 16 C0 10.72 0 5.44 0 0 Z " fill="#F4F5F5" transform="translate(132,43)"/>
<path d="M0 0 C0.47863248 6.22222222 0.47863248 6.22222222 -1.5 9.4375 C-5.20823701 11.75514813 -7.66420994 11.41959259 -12 11 C-14 9 -14 9 -14.3125 6.5625 C-14 4 -14 4 -12.75 2.25 C-8.81474413 -0.56089705 -4.70351008 -0.09045212 0 0 Z " fill="#F2F3F3" transform="translate(348,68)"/>
<path d="M0 0 C0.70125 0.00515625 1.4025 0.0103125 2.125 0.015625 C2.82625 0.01046875 3.5275 0.0053125 4.25 0 C6.125 0.265625 6.125 0.265625 8.125 2.265625 C8.375 5.265625 8.375 5.265625 8.125 8.265625 C6.125 10.265625 6.125 10.265625 4.25 10.49609375 C3.54875 10.48191406 2.8475 10.46773437 2.125 10.453125 C1.42375 10.44667969 0.7225 10.44023438 0 10.43359375 C-1.875 10.265625 -1.875 10.265625 -3.875 9.265625 C-4 5.890625 -4 5.890625 -3.875 2.265625 C-1.875 0.265625 -1.875 0.265625 0 0 Z " fill="#292E39" transform="translate(199.875,30.734375)"/>
</svg>
